<?xml version="1.0" encoding="UTF-8"?>
<svg id="Layer_1" xmlns="http://www.w3.org/2000/svg" version="1.1" viewBox="0 0 24 24">
  <!-- Generator: Adobe Illustrator 30.3.0, SVG Export Plug-In . SVG Version: 2.1.3 Build 182)  -->
  <defs>
    <style>
      .st0 {
        fill: #fff;
      }
    </style>
  </defs>
  <path class="st0" d="M10.21,21.99l2.65,1.59c-.92.27-1.89.42-2.86.42C4.46,24-.05,19.49-.05,13.95.04,8.8,6.21,3.17,9.95.06c2.26,1.66,4.59,3.92,6.84,6.66.63.8,1.16,1.56,1.6,2.31-.72-.07-1.45.06-2.12.38-.31-.47-.66-.95-1.05-1.45-1.61-2.04-3.63-3.95-5.21-5.32C7.11,5.13,1.95,10.12,1.95,13.95c0,4.44,3.61,8.05,8.05,8.05.07,0,.14,0,.21-.01ZM24,14.27v6.46l-4.97,2.98c-.64.38-1.42.38-2.06,0l-4.97-2.98v-6.46l4.97-2.98c.64-.38,1.42-.38,2.06,0l4.97,2.98h0ZM14.94,14.83l3.06,1.83,3.06-1.83-3.06-1.83-3.06,1.83ZM17,21.4v-3l-3-1.8v3l3,1.8h0ZM22,19.6v-3l-3,1.8v3l3-1.8h0Z"/>
</svg>