<?xml version="1.0" encoding="UTF-8"?>
<svg id="Layer_1" xmlns="http://www.w3.org/2000/svg" version="1.1" viewBox="0 0 512 512">
  <!-- Generator: Adobe Illustrator 30.3.0, SVG Export Plug-In . SVG Version: 2.1.3 Build 182)  -->
  <defs>
    <style>
      .st0 {
        fill: #fff;
      }
    </style>
  </defs>
  <path class="st0" d="M458.67,405.33c-10.86,0-20.93,3.29-29.38,8.87l-30.42-30.42c17.71-19.78,31.47-43.14,39.81-68.97l59.97,15.51c.9.23,1.79.34,2.67.34,4.74,0,9.07-3.18,10.3-8,1.47-5.72-1.94-11.52-7.66-12.99l-59.84-15.47c2.5-12.35,3.84-25.13,3.84-38.21s-1.34-25.86-3.84-38.21l59.84-15.47c5.72-1.47,9.13-7.3,7.66-12.99s-7.3-9.11-12.99-7.66l-59.97,15.51c-8.34-25.83-22.1-49.19-39.81-68.97l30.42-30.42c8.43,5.59,18.52,8.87,29.35,8.87,29.4,0,53.33-23.91,53.33-53.33S488.02,0,458.62,0s-53.33,23.91-53.33,53.33c0,10.86,3.29,20.93,8.87,29.38l-30.42,30.42c-19.78-17.71-43.14-31.47-68.97-39.81l15.51-59.97c1.47-5.72-1.94-11.52-7.66-12.99-5.67-1.45-11.54,1.96-12.99,7.66l-15.47,59.84c-12.35-2.5-25.13-3.84-38.21-3.84s-25.86,1.34-38.21,3.84l-15.47-59.84c-1.47-5.72-7.27-9.11-12.99-7.66-5.72,1.47-9.13,7.3-7.66,12.99l15.51,59.97c-25.83,8.34-49.19,22.1-68.97,39.81l-30.42-30.42c5.59-8.43,8.87-18.52,8.87-29.38C106.62,23.91,82.69,0,53.29,0S0,23.91,0,53.33s23.94,53.33,53.33,53.33c10.86,0,20.93-3.29,29.35-8.87l30.42,30.42c-17.71,19.78-31.47,43.14-39.81,68.97l-59.97-15.51c-5.72-1.45-11.52,1.96-12.99,7.66-1.47,5.72,1.94,11.52,7.66,12.99l59.84,15.47c-2.5,12.35-3.84,25.13-3.84,38.21s1.34,26.15,3.9,38.63l-59.84,15.02c-5.72,1.43-9.19,7.23-7.74,12.95,1.22,4.84,5.57,8.06,10.33,8.06.87,0,1.75-.11,2.6-.32l60.2-15.1c8.36,25.66,22.04,48.87,39.66,68.57l-30.42,30.42c-8.43-5.59-18.52-8.87-29.38-8.87C23.91,405.35-.02,429.27-.02,458.69s23.94,53.33,53.33,53.33,53.33-23.91,53.33-53.33c0-10.86-3.29-20.93-8.87-29.38l30.42-30.42c19.78,17.71,43.14,31.47,68.97,39.81l-15.51,59.97c-1.47,5.72,1.94,11.52,7.66,12.99.9.23,1.79.34,2.67.34,4.74,0,9.07-3.18,10.3-8l15.47-59.84c12.35,2.5,25.13,3.84,38.21,3.84s25.86-1.34,38.21-3.84l15.47,59.84c1.24,4.82,5.57,8,10.3,8,.9,0,1.77-.11,2.67-.34,5.72-1.47,9.13-7.3,7.66-12.99l-15.51-59.97c25.83-8.34,49.19-22.1,68.97-39.81l30.42,30.42c-5.59,8.43-8.87,18.52-8.87,29.38,0,29.42,23.94,53.33,53.33,53.33s53.33-23.91,53.33-53.33-23.94-53.33-53.33-53.33l.06-.02ZM458.67,21.33c17.64,0,32,14.36,32,32s-14.36,32-32,32-32-14.36-32-32,14.36-32,32-32ZM53.33,85.33c-17.64,0-32-14.36-32-32s14.36-32,32-32,32,14.36,32,32-14.36,32-32,32ZM53.33,490.67c-17.64,0-32-14.36-32-32s14.36-32,32-32,32,14.36,32,32-14.36,32-32,32ZM256,426.67c-94.25,0-170.67-76.42-170.67-170.67s76.42-170.67,170.67-170.67,170.67,76.42,170.67,170.67-76.42,170.67-170.67,170.67ZM458.67,490.67c-17.64,0-32-14.36-32-32s14.36-32,32-32,32,14.36,32,32-14.36,32-32,32ZM277.33,341.33c0,11.78-9.56,21.33-21.33,21.33s-21.33-9.56-21.33-21.33,9.56-21.33,21.33-21.33,21.33,9.56,21.33,21.33ZM362.67,256c0,11.78-9.56,21.33-21.33,21.33s-21.33-9.56-21.33-21.33,9.56-21.33,21.33-21.33,21.33,9.56,21.33,21.33ZM277.33,170.67c0,11.78-9.56,21.33-21.33,21.33s-21.33-9.56-21.33-21.33,9.56-21.33,21.33-21.33,21.33,9.56,21.33,21.33ZM192,256c0,11.78-9.56,21.33-21.33,21.33s-21.33-9.56-21.33-21.33,9.56-21.33,21.33-21.33,21.33,9.56,21.33,21.33Z"/>
</svg>