<?xml version="1.0" encoding="UTF-8"?>
<svg xmlns="http://www.w3.org/2000/svg" id="Layer_1" data-name="Layer 1" viewBox="0 0 24 24">
  <path d="M10.5,12c.523,0,1.032-.118,1.5-.344,.468,.227,.977,.344,1.5,.344,1.93,0,3.5-1.57,3.5-3.5,.635-.649,1-1.584,1-2.5,0-1.154-.572-2.354-1.5-3,0-1.654-1.346-3-3-3-.531,0-1.048,.144-1.5,.408-.452-.265-.969-.408-1.5-.408-1.654,0-3,1.346-3,3-.928,.646-1.5,1.846-1.5,3,0,.916,.365,1.851,1,2.5,0,1.93,1.57,3.5,3.5,3.5ZM13,2.142c.128-.078,.293-.142,.5-.142,.552,0,1,.449,1,1v.717c0,.397,.235,.757,.6,.916,.547,.24,.9,.776,.9,1.367,0,.485-.229,.928-.631,1.215-.316,.228-.473,.618-.399,1,.018,.093,.03,.187,.03,.285,0,.827-.673,1.5-1.5,1.5-.189,0-.355-.039-.5-.093V2.142Zm-4.1,2.491c.364-.159,.6-.519,.6-.916v-.717c0-.551,.448-1,1-1,.207,0,.372,.064,.5,.142v7.765c-.145,.054-.311,.093-.5,.093-.827,0-1.5-.673-1.5-1.5,0-.098,.013-.192,.03-.285,.073-.383-.083-.773-.399-1-.401-.287-.631-.73-.631-1.215,0-.591,.354-1.127,.9-1.367Zm-5.9,1.367c1.654,0,3,1.346,3,3v5.184c.266-.094,.542-.164,.832-.18,.789-.038,1.568,.227,2.173,.77l3.009,2.768c.082-.084,.16-.172,.247-.252l2.743-2.523c.597-.535,1.375-.808,2.164-.762,.29,.016,.566,.086,.832,.18v-5.184c0-1.654,1.346-3,3-3s3,1.346,3,3v8.101c0,2.137-.832,4.146-2.343,5.656l-.95,.95c-.195,.195-.451,.293-.707,.293s-.512-.098-.707-.293c-.391-.391-.391-1.023,0-1.414l.95-.95c1.133-1.133,1.757-2.64,1.757-4.242V9c0-.551-.448-1-1-1s-1,.449-1,1c0,0-.018,8.075-.023,8.114-.029,.655-.262,1.31-.723,1.858l-2.616,2.721c-.383,.397-1.015,.41-1.414,.027-.397-.383-.41-1.016-.027-1.414l2.571-2.67c.316-.378,.307-.938-.022-1.306-.178-.198-.421-.315-.687-.33-.267-.016-.521,.076-.71,.245l-2.734,2.516c-1.025,.943-1.614,2.285-1.614,3.679v.56c0,.553-.447,1-1,1s-1-.447-1-1v-.56c0-1.152,.294-2.274,.824-3.276l-3.164-2.911c-.197-.178-.456-.27-.719-.253-.266,.015-.509,.132-.688,.331-.159,.178-.24,.448-.254,.668-.003,.216,.058,.43,.187,.586l2.533,2.634c.383,.398,.37,1.031-.027,1.414-.194,.187-.443,.279-.693,.279-.263,0-.524-.103-.721-.307l-2.578-2.685c-.45-.536-.674-1.196-.688-1.859-.001-.022-.013-8.063-.013-8.063,0-.551-.448-1-1-1s-1,.449-1,1v8.101c0,1.603,.624,3.109,1.757,4.242l.95,.95c.391,.391,.391,1.023,0,1.414-.195,.195-.451,.293-.707,.293s-.512-.098-.707-.293l-.95-.95C.832,21.246,0,19.237,0,17.101V9c0-1.654,1.346-3,3-3Z"/>
</svg>
