<?xml version="1.0" encoding="UTF-8"?>
<svg xmlns="http://www.w3.org/2000/svg" id="Layer_1" data-name="Layer 1" viewBox="0 0 24 24">
  <path d="M11,11c0,.5-.647,1-1,1-1.657,0-3-1.343-3-3,0-.277,.05-.541,.12-.796-.676-.501-1.12-1.298-1.12-2.204,0-1.114,.665-2.067,1.617-2.5-.068-.24-.117-.488-.117-.75,0-1.519,1.231-2.75,2.75-2.75,.263,0,.75,0,.75,1V11Zm7-5c0-1.114-.665-2.067-1.617-2.5,.068-.24,.117-.488,.117-.75,0-1.519-1.231-2.75-2.75-2.75-.263,0-.75,0-.75,1V11c0,1,.647,1,1,1,1.657,0,3-1.343,3-3,0-.277-.05-.541-.12-.796,.676-.501,1.12-1.298,1.12-2.204ZM5.565,16.687l2.487,2.532c.122-1.225,.669-2.378,1.587-3.212l.874-.794-1.813-1.646c-1.017-.923-2.668-.721-3.407,.533-.48,.815-.331,1.858,.272,2.586ZM1.5,6c.828,0,1.5,.672,1.5,1.5v7.5s.011,0,.011,0c-.05,1.022,.267,2.061,.956,2.893l4.033,4.107v1c0,.552-.448,1-1,1H3.691c-.281,0-.549-.118-.738-.326l-.598-.654C.84,21.362,0,19.197,0,16.95V7.5c0-.828,.672-1.5,1.5-1.5Zm9.483,11.487l4.317-3.92c1.017-.923,2.668-.721,3.407,.533,.48,.815,.331,1.858-.272,2.586l-2.548,2.573c-.384,.388-.383,1.014,.003,1.4h0c.389,.389,1.02,.387,1.407-.004l2.735-2.763c.689-.832,1.005-1.871,.956-2.893h.011V7.5c0-.828,.672-1.5,1.5-1.5s1.5,.672,1.5,1.5v9.45c0,2.246-.84,4.412-2.355,6.07l-.598,.654c-.189,.207-.457,.326-.738,.326H11c-.552,0-1-.448-1-1v-3.292c0-.846,.357-1.652,.983-2.221Z"/>
</svg>
