<?xml version="1.0" encoding="UTF-8"?>
<svg id="Layer_1" xmlns="http://www.w3.org/2000/svg" version="1.1" viewBox="0 0 512 512">
  <!-- Generator: Adobe Illustrator 30.3.0, SVG Export Plug-In . SVG Version: 2.1.3 Build 182)  -->
  <defs>
    <style>
      .st0 {
        fill: #fff;
      }
    </style>
  </defs>
  <path class="st0" d="M512,288c0-99.99-81.34-181.33-181.33-181.33h-53.33c0-27.82-17.83-51.52-42.67-60.33v-25C234.67,9.56,225.13,0,213.33,0s-21.33,9.56-21.33,21.33v25c-24.83,8.81-42.67,32.51-42.67,60.33v170.67c0,11.78,9.54,21.33,21.33,21.33h85.33c11.8,0,21.33-9.56,21.33-21.33v-128h53.33c76.46,0,138.67,62.21,138.67,138.67s-62.21,138.67-138.67,138.67h-96v-42.67h85.33c11.8,0,21.33-9.56,21.33-21.33s-9.54-21.33-21.33-21.33H106.67c-11.8,0-21.33,9.56-21.33,21.33s9.54,21.33,21.33,21.33h85.33v42.67H42.67c-11.8,0-21.33,9.56-21.33,21.33s9.54,21.33,21.33,21.33h21.33v21.33c0,11.78,9.54,21.33,21.33,21.33s21.33-9.56,21.33-21.33v-21.33h213.33v21.33c0,11.78,9.54,21.33,21.33,21.33s21.33-9.56,21.33-21.33v-24.17c84.78-15.17,149.33-89.43,149.33-178.5h0ZM234.67,256h-42.67V106.67c0-11.75,9.56-21.33,21.33-21.33s21.33,9.58,21.33,21.33v149.33Z"/>
</svg>