<?xml version="1.0" encoding="UTF-8"?>
<svg id="Layer_1" xmlns="http://www.w3.org/2000/svg" version="1.1" viewBox="0 0 24 24">
  <!-- Generator: Adobe Illustrator 30.3.0, SVG Export Plug-In . SVG Version: 2.1.3 Build 182)  -->
  <defs>
    <style>
      .st0 {
        fill: #fff;
      }
    </style>
  </defs>
  <path class="st0" d="M23.5,9c.28,0,.5-.22.5-.5s-.22-.5-.5-.5h-1.5v-1.5c0-.17-.03-.33-.05-.5h1.55c.28,0,.5-.22.5-.5s-.22-.5-.5-.5h-1.78c-.45-1.27-1.45-2.27-2.72-2.72V.5c0-.28-.22-.5-.5-.5s-.5.22-.5.5v1.55c-.17-.02-.33-.05-.5-.05h-1.5V.5c0-.28-.22-.5-.5-.5s-.5.22-.5.5v1.5h-2.5V.5c0-.28-.22-.5-.5-.5s-.5.22-.5.5v1.5h-2.5V.5c0-.28-.22-.5-.5-.5s-.5.22-.5.5v1.5h-1.5c-.17,0-.33.03-.5.05V.5C6,.22,5.78,0,5.5,0s-.5.22-.5.5v1.78c-1.27.45-2.27,1.45-2.72,2.72H.5c-.28,0-.5.22-.5.5s.22.5.5.5h1.55c-.02.17-.05.33-.05.5v1.5H.5c-.28,0-.5.22-.5.5s.22.5.5.5h1.5v2.5H.5c-.28,0-.5.22-.5.5s.22.5.5.5h1.5v2.5H.5c-.28,0-.5.22-.5.5s.22.5.5.5h1.5v1.5c0,.17.03.33.05.5H.5C.22,18,0,18.22,0,18.5s.22.5.5.5h1.78c.45,1.27,1.45,2.27,2.72,2.72v1.78c0,.28.22.5.5.5s.5-.22.5-.5v-1.55c.17.02.33.05.5.05h1.5v1.5c0,.28.22.5.5.5s.5-.22.5-.5v-1.5h2.5v1.5c0,.28.22.5.5.5s.5-.22.5-.5v-1.5h2.5v1.5c0,.28.22.5.5.5s.5-.22.5-.5v-1.5h1.5c.17,0,.33-.03.5-.05v1.55c0,.28.22.5.5.5s.5-.22.5-.5v-1.78c1.27-.45,2.27-1.45,2.72-2.72h1.78c.28,0,.5-.22.5-.5s-.22-.5-.5-.5h-1.55c.02-.17.05-.33.05-.5v-1.5h1.5c.28,0,.5-.22.5-.5s-.22-.5-.5-.5h-1.5v-2.5h1.5c.28,0,.5-.22.5-.5s-.22-.5-.5-.5h-1.5v-2.5h1.5ZM17.5,21H6.5c-1.93,0-3.5-1.57-3.5-3.5V6.5c0-1.93,1.57-3.5,3.5-3.5h11c1.93,0,3.5,1.57,3.5,3.5v11c0,1.93-1.57,3.5-3.5,3.5ZM16.5,9.27v-.52c0-1.52-1.23-2.75-2.75-2.75-.64,0-1.24.22-1.73.63,0,0-.01,0-.02,0,0,0-.01,0-.02,0-.49-.4-1.09-.63-1.73-.63-1.52,0-2.75,1.23-2.75,2.75v.52c-.93.6-1.5,1.62-1.5,2.73,0,.88.36,1.72,1,2.33v.42c0,1.79,1.46,3.25,3.25,3.25.61,0,1.2-.17,1.72-.51.01,0,.02,0,.03,0,.01,0,.02,0,.03,0,.52.33,1.11.51,1.72.51,1.79,0,3.25-1.46,3.25-3.25v-.42c.64-.61,1-1.45,1-2.33,0-1.12-.57-2.14-1.5-2.73h0ZM8,14.75v-.64c0-.15-.07-.29-.18-.39-.52-.43-.82-1.06-.82-1.72,0-.85.47-1.61,1.23-2,.17-.09.27-.26.27-.44v-.81c0-.97.78-1.75,1.75-1.75.48,0,.92.2,1.25.55v9.04c-.38.26-.8.4-1.25.4-1.24,0-2.25-1.01-2.25-2.25h0ZM16.18,13.72c-.11.1-.18.24-.18.39v.64c0,1.24-1.01,2.25-2.25,2.25-.45,0-.87-.14-1.25-.4V7.55c.33-.35.77-.55,1.25-.55.97,0,1.75.78,1.75,1.75v.81c0,.19.1.36.27.44.76.39,1.23,1.15,1.23,2,0,.66-.3,1.29-.82,1.72Z"/>
</svg>