<?xml version="1.0" encoding="UTF-8"?>
<svg id="Layer_1" xmlns="http://www.w3.org/2000/svg" version="1.1" viewBox="0 0 24 24">
  <!-- Generator: Adobe Illustrator 30.3.0, SVG Export Plug-In . SVG Version: 2.1.3 Build 182)  -->
  <defs>
    <style>
      .st0 {
        fill: #fff;
      }
    </style>
  </defs>
  <path class="st0" d="M18.02,5.02c0-1.05-.63-2-1.57-2.42C16.41,1.16,15.23,0,13.79,0,13.21,0,12.45.34,12,.67,11.55.34,10.8,0,10.23,0,8.79,0,7.61,1.16,7.57,2.6c-.94.42-1.57,1.37-1.57,2.42,0,.33.07.66.2.98-.13.32-.2.65-.2.98,0,.8.36,1.55,1,2.07.03,1.63,1.36,2.95,3,2.95.75,0,1.46-.28,2-.77.54.5,1.24.77,2,.77,1.65,0,3-1.35,3.02-2.95.64-.51,1-1.27,1-2.07,0-.33-.07-.66-.2-.98.13-.32.2-.65.2-.98h0ZM11.5,10.29c-.38.45-.92.71-1.5.71-1.1,0-2-.9-1.99-2.08,0,0,0-1.42,1.59-1.93.27-.05.44-.32.39-.59-.06-.27-.32-.44-.59-.39-.99.2-1.78.9-2.16,1.81-.15-.25-.24-.54-.24-.84,0-.25.06-.51.19-.75.07-.14.07-.31,0-.46-.13-.25-.19-.5-.19-.75,0-.74.51-1.4,1.23-1.6.24-.07.39-.36.35-.61,0-.05-.02-.1-.02-.15,0-.92.74-1.66,1.66-1.66.49,0,.95.23,1.27.61v8.68h0ZM16.83,6.23c.13.25.19.5.19.75,0,.5-.23.97-.62,1.29-.11.08-.39.31-.39.73,0,1.1-.9,2-2,2-.59,0-1.12-.26-1.5-.71V1.63c.31-.39.78-.63,1.28-.63.9,0,1.69.61,1.72,1.5,0,.6-.53,1.36-1.13,1.52-.27.07-.43.35-.35.61.06.22.26.37.48.37.89-.2,1.41-.74,1.71-1.38.49.3.81.82.81,1.4,0,.25-.06.51-.19.75-.07.14-.07.31,0,.46h0Z"/>
  <path class="st0" d="M21.5,6c-1.38,0-2.5,1.12-2.5,2.5v6c-.39-.29-.86-.47-1.36-.49-.66-.04-1.31.19-1.81.64l-2.73,2.52c-.43.4-.79.85-1.1,1.34-.31-.49-.67-.94-1.1-1.34l-2.74-2.52c-.5-.44-1.13-.68-1.8-.63-.5.03-.97.2-1.36.49v-6c0-1.38-1.12-2.5-2.5-2.5s-2.5,1.12-2.5,2.5v8.1c0,2,.78,3.89,2.2,5.3l1.95,1.95c.1.1.23.15.35.15s.26-.05.35-.15c.2-.19.2-.51,0-.71l-1.95-1.95c-1.23-1.23-1.9-2.86-1.9-4.6v-8.1c0-.83.67-1.5,1.5-1.5s1.5.67,1.5,1.5c0,0,0,8.05,0,8.08.02.55.23,1.09.61,1.55l2.62,2.72c.1.1.23.15.36.15s.25-.05.35-.14c.2-.19.21-.51.01-.71l-2.59-2.69c-.48-.57-.46-1.41.03-1.96.27-.3.63-.48,1.03-.5.4,0,.78.11,1.07.38l2.73,2.52c.52.48.93,1.05,1.23,1.69-.29.75-.45,1.54-.45,2.36v1.56c0,.28.22.5.5.5s.5-.22.5-.5v-1.56c0-1.53.65-3.01,1.78-4.05l2.73-2.51c.3-.27.69-.39,1.08-.38.4.02.77.2,1.03.5.25.27.37.62.38.97h0c0,.35-.1.7-.33.97l-2.62,2.72c-.19.2-.19.52.01.71.2.19.52.18.71-.01l2.64-2.75c.38-.45.57-1,.58-1.55,0-.02,0-8.06,0-8.06,0-.83.67-1.5,1.5-1.5s1.5.67,1.5,1.5v8.1c0,1.74-.68,3.37-1.9,4.6l-1.95,1.95c-.19.19-.19.51,0,.71.1.1.23.15.35.15s.26-.05.35-.15l1.95-1.95c1.42-1.42,2.2-3.3,2.2-5.3v-8.1c0-1.38-1.12-2.5-2.5-2.5h0Z"/>
</svg>