<?xml version="1.0" encoding="UTF-8"?>
<svg id="Layer_1" xmlns="http://www.w3.org/2000/svg" version="1.1" viewBox="0 0 24 24">
  <!-- Generator: Adobe Illustrator 30.3.0, SVG Export Plug-In . SVG Version: 2.1.3 Build 182)  -->
  <defs>
    <style>
      .st0 {
        fill: #fff;
      }
    </style>
  </defs>
  <path class="st0" d="M20.27,18.74l-3.81-3.87,1.19-1.19c1.5-1.48,2.34-3.46,2.35-5.59,0-2.17-.83-4.22-2.37-5.76C16.13.83,14.13,0,12,0s-4.12.83-5.63,2.33c-1.51,1.51-2.37,3.61-2.35,5.75.02,2.11.86,4.07,2.34,5.5l1.22,1.27-3.86,3.89c-.48.48-.74,1.11-.74,1.78,0,.67.27,1.3.75,1.77l1.01.99c.49.48,1.12.72,1.75.72s1.3-.25,1.78-.75l3.73-3.82,3.68,3.82c.49.5,1.13.75,1.78.75s1.26-.24,1.75-.72l1.01-.99c.48-.47.75-1.1.75-1.77,0-.67-.26-1.31-.73-1.78h0ZM19,8.08c0,1.85-.74,3.59-2.05,4.88l-1.19,1.19-3.02-3.06c1.19-1.01,4.26-3.83,4.26-6.09,0-.92-.27-1.77-.7-2.51.21.17.42.35.62.54,1.35,1.35,2.09,3.14,2.08,5.05h0ZM12,1c2.21,0,4,1.79,4,4,0,.62-.36,1.37-.89,2.12-.88-.71-1.96-1.12-3.11-1.12s-2.23.41-3.12,1.12c-.52-.75-.88-1.49-.88-2.12,0-2.21,1.79-4,4-4ZM14.51,7.91c-.83,1-1.83,1.93-2.51,2.49-.68-.57-1.68-1.5-2.51-2.49,1.43-1.14,3.58-1.14,5.01,0h0ZM7.58,22.55c-.58.59-1.53.6-2.12.02l-1.01-.99c-.29-.28-.45-.66-.45-1.07,0-.4.16-.78.44-1.07l3.84-3.87,3.04,3.15-3.75,3.84h0ZM19.55,21.58l-1.01.99c-.59.58-1.54.57-2.11-.02L7.07,12.87c-1.3-1.25-2.03-2.96-2.05-4.8-.02-1.88.73-3.71,2.06-5.03.2-.2.4-.37.62-.54-.43.74-.7,1.59-.7,2.51,0,2.62,4.1,5.97,4.66,6.42l7.9,8.02c.29.28.44.66.44,1.07,0,.4-.16.78-.45,1.07h0Z"/>
</svg>